<svg width="733" height="639" viewBox="0 0 733 639" fill="none" xmlns="http://www.w3.org/2000/svg">
<rect width="653" height="559" transform="translate(40 40)" fill="black" fill-opacity="0.2"/>
<g filter="url(#filter0_d_0_1)">
<path d="M106 507H665L197 421.012L106 148V507Z" fill="#313030"/>
</g>
<g filter="url(#filter1_d_0_1)">
<path d="M644 140H107L556.581 220L644 474V140Z" fill="#313030"/>
</g>
<rect x="43" y="43" width="41.3438" height="30" rx="3" fill="black"/>
<rect x="43.5" y="43.5" width="40.3438" height="29" rx="2.5" stroke="white" stroke-opacity="0.0980392"/>
<path d="M50.2969 61H49.2813L52.2188 53H53.2188L56.1563 61H55.1406L52.75 54.2656H52.6875L50.2969 61ZM50.6719 57.875H54.7656V58.7344H50.6719V57.875ZM61.5273 56.3437L60.6992 56.5781C60.6471 56.4401 60.5703 56.306 60.4688 56.1758C60.3698 56.043 60.2344 55.9336 60.0625 55.8477C59.8906 55.7617 59.6706 55.7187 59.4023 55.7187C59.0352 55.7187 58.7292 55.8034 58.4844 55.9727C58.2422 56.1393 58.1211 56.3516 58.1211 56.6094C58.1211 56.8385 58.2044 57.0195 58.3711 57.1523C58.5378 57.2852 58.7982 57.3958 59.1523 57.4844L60.043 57.7031C60.5794 57.8333 60.9792 58.0326 61.2422 58.3008C61.5052 58.5664 61.6367 58.9089 61.6367 59.3281C61.6367 59.6719 61.5378 59.9792 61.3398 60.25C61.1445 60.5208 60.8711 60.7344 60.5195 60.8906C60.168 61.0469 59.7591 61.125 59.293 61.125C58.681 61.125 58.1745 60.9922 57.7734 60.7266C57.3724 60.4609 57.1185 60.0729 57.0117 59.5625L57.8867 59.3437C57.9701 59.6667 58.1276 59.9089 58.3594 60.0703C58.5938 60.2318 58.8997 60.3125 59.2773 60.3125C59.707 60.3125 60.0482 60.2214 60.3008 60.0391C60.556 59.8542 60.6836 59.6328 60.6836 59.375C60.6836 59.1667 60.6107 58.9922 60.4648 58.8516C60.319 58.7083 60.0951 58.6016 59.793 58.5312L58.793 58.2969C58.2435 58.1667 57.8398 57.9648 57.582 57.6914C57.3268 57.4154 57.1992 57.0703 57.1992 56.6562C57.1992 56.3177 57.2943 56.0182 57.4844 55.7578C57.6771 55.4974 57.9388 55.293 58.2695 55.1445C58.6029 54.9961 58.9805 54.9219 59.4023 54.9219C59.9961 54.9219 60.4622 55.0521 60.8008 55.3125C61.1419 55.5729 61.3841 55.9167 61.5273 56.3437ZM67.2744 56.3437L66.4463 56.5781C66.3942 56.4401 66.3174 56.306 66.2158 56.1758C66.1169 56.043 65.9814 55.9336 65.8096 55.8477C65.6377 55.7617 65.4176 55.7187 65.1494 55.7187C64.7822 55.7187 64.4762 55.8034 64.2314 55.9727C63.9893 56.1393 63.8682 56.3516 63.8682 56.6094C63.8682 56.8385 63.9515 57.0195 64.1182 57.1523C64.2848 57.2852 64.5452 57.3958 64.8994 57.4844L65.79 57.7031C66.3265 57.8333 66.7262 58.0326 66.9893 58.3008C67.2523 58.5664 67.3838 58.9089 67.3838 59.3281C67.3838 59.6719 67.2848 59.9792 67.0869 60.25C66.8916 60.5208 66.6182 60.7344 66.2666 60.8906C65.915 61.0469 65.5062 61.125 65.04 61.125C64.4281 61.125 63.9215 60.9922 63.5205 60.7266C63.1195 60.4609 62.8656 60.0729 62.7588 59.5625L63.6338 59.3437C63.7171 59.6667 63.8747 59.9089 64.1064 60.0703C64.3408 60.2318 64.6468 60.3125 65.0244 60.3125C65.4541 60.3125 65.7952 60.2214 66.0479 60.0391C66.3031 59.8542 66.4307 59.6328 66.4307 59.375C66.4307 59.1667 66.3577 58.9922 66.2119 58.8516C66.0661 58.7083 65.8421 58.6016 65.54 58.5312L64.54 58.2969C63.9906 58.1667 63.5869 57.9648 63.3291 57.6914C63.0739 57.4154 62.9463 57.0703 62.9463 56.6562C62.9463 56.3177 63.0413 56.0182 63.2314 55.7578C63.4242 55.4974 63.6859 55.293 64.0166 55.1445C64.3499 54.9961 64.7275 54.9219 65.1494 54.9219C65.7432 54.9219 66.2093 55.0521 66.5479 55.3125C66.889 55.5729 67.1312 55.9167 67.2744 56.3437ZM71.2871 61.125C70.709 61.125 70.2103 60.9974 69.791 60.7422C69.3743 60.4844 69.0527 60.125 68.8262 59.6641C68.6022 59.2005 68.4902 58.6615 68.4902 58.0469C68.4902 57.4323 68.6022 56.8906 68.8262 56.4219C69.0527 55.9505 69.3678 55.5833 69.7715 55.3203C70.1777 55.0547 70.6517 54.9219 71.1934 54.9219C71.5059 54.9219 71.8145 54.974 72.1191 55.0781C72.4238 55.1823 72.7012 55.3516 72.9512 55.5859C73.2012 55.8177 73.4004 56.125 73.5488 56.5078C73.6973 56.8906 73.7715 57.362 73.7715 57.9219V58.3125H69.1465V57.5156H72.834C72.834 57.1771 72.7663 56.875 72.6309 56.6094C72.498 56.3437 72.3079 56.1341 72.0605 55.9805C71.8158 55.8268 71.5267 55.75 71.1934 55.75C70.8262 55.75 70.5085 55.8411 70.2402 56.0234C69.9746 56.2031 69.7702 56.4375 69.627 56.7266C69.4837 57.0156 69.4121 57.3255 69.4121 57.6562V58.1875C69.4121 58.6406 69.4902 59.0247 69.6465 59.3398C69.8053 59.6523 70.0254 59.8906 70.3066 60.0547C70.5879 60.2161 70.9147 60.2969 71.2871 60.2969C71.5293 60.2969 71.748 60.263 71.9434 60.1953C72.1413 60.125 72.3118 60.0208 72.4551 59.8828C72.5983 59.7422 72.709 59.5677 72.7871 59.3594L73.6777 59.6094C73.584 59.9115 73.4264 60.1771 73.2051 60.4062C72.9837 60.6328 72.7103 60.8099 72.3848 60.9375C72.0592 61.0625 71.6934 61.125 71.2871 61.125ZM77.7832 55V55.7812H74.6738V55H77.7832ZM75.5801 53.5625H76.502V59.2812C76.502 59.5417 76.5397 59.737 76.6152 59.8672C76.6934 59.9948 76.7923 60.0807 76.9121 60.125C77.0345 60.1667 77.1634 60.1875 77.2988 60.1875C77.4004 60.1875 77.4837 60.1823 77.5488 60.1719C77.6139 60.1589 77.666 60.1484 77.7051 60.1406L77.8926 60.9687C77.8301 60.9922 77.7428 61.0156 77.6309 61.0391C77.5189 61.0651 77.377 61.0781 77.2051 61.0781C76.9447 61.0781 76.6895 61.0221 76.4395 60.9102C76.1921 60.7982 75.9863 60.6276 75.8223 60.3984C75.6608 60.1693 75.5801 59.8802 75.5801 59.5312V53.5625Z" fill="white"/>
<defs>
<filter id="filter0_d_0_1" x="86.1" y="132.1" width="598.8" height="398.8" filterUnits="userSpaceOnUse" color-interpolation-filters="sRGB">
<feFlood flood-opacity="0" result="BackgroundImageFix"/>
<feColorMatrix in="SourceAlpha" type="matrix" values="0 0 0 0 0 0 0 0 0 0 0 0 0 0 0 0 0 0 127 0" result="hardAlpha"/>
<feOffset dy="4"/>
<feGaussianBlur stdDeviation="9.95"/>
<feComposite in2="hardAlpha" operator="out"/>
<feColorMatrix type="matrix" values="0 0 0 0 0 0 0 0 0 0 0 0 0 0 0 0 0 0 0.25 0"/>
<feBlend mode="normal" in2="BackgroundImageFix" result="effect1_dropShadow_0_1"/>
<feBlend mode="normal" in="SourceGraphic" in2="effect1_dropShadow_0_1" result="shape"/>
</filter>
<filter id="filter1_d_0_1" x="87.1" y="124.1" width="576.8" height="373.8" filterUnits="userSpaceOnUse" color-interpolation-filters="sRGB">
<feFlood flood-opacity="0" result="BackgroundImageFix"/>
<feColorMatrix in="SourceAlpha" type="matrix" values="0 0 0 0 0 0 0 0 0 0 0 0 0 0 0 0 0 0 127 0" result="hardAlpha"/>
<feOffset dy="4"/>
<feGaussianBlur stdDeviation="9.95"/>
<feComposite in2="hardAlpha" operator="out"/>
<feColorMatrix type="matrix" values="0 0 0 0 0 0 0 0 0 0 0 0 0 0 0 0 0 0 0.25 0"/>
<feBlend mode="normal" in2="BackgroundImageFix" result="effect1_dropShadow_0_1"/>
<feBlend mode="normal" in="SourceGraphic" in2="effect1_dropShadow_0_1" result="shape"/>
</filter>
</defs>
</svg>
